/* XPM */
static char *result[] = {
/* columns rows colors chars-per-pixel */
"64 64 87 1 ",
"  c #39536A",
". c #3C566F",
"X c #3E586F",
"o c #3E5871",
"O c #3F5970",
"+ c #3F5972",
"@ c #405A71",
"# c #405A73",
"$ c #415B72",
"% c #415B74",
"& c #425C73",
"* c #425C75",
"= c #435D74",
"- c #435D76",
"; c #445E75",
": c #445E77",
"> c #455F76",
", c #455F78",
"< c #466077",
"1 c #466079",
"2 c #476178",
"3 c #47617A",
"4 c #486279",
"5 c #48627B",
"6 c #49637A",
"7 c #49637C",
"8 c #4A647B",
"9 c #4A647D",
"0 c #4B657C",
"q c #4B657E",
"w c #4C667D",
"e c #4C667F",
"r c #4D677E",
"t c #4D6780",
"y c #4E687F",
"u c #4E6881",
"i c #4F6980",
"p c #4F6982",
"a c #506A81",
"s c #506A83",
"d c #516B82",
"f c #516B84",
"g c #526C83",
"h c #526C85",
"j c #536D84",
"k c #536D86",
"l c #546E85",
"z c #546E87",
"x c #556F86",
"c c #556F88",
"v c #567087",
"b c #567089",
"n c #577188",
"m c #57718A",
"M c #587289",
"N c #58728B",
"B c #59738A",
"V c #59738C",
"C c #5A748B",
"Z c #5A748D",
"A c #5B758C",
"S c #5B758E",
"D c #5C768D",
"F c #5C768F",
"G c #5D778E",
"H c #5D7790",
"J c #5E788F",
"K c #5E7891",
"L c #5F7990",
"P c #5F7992",
"I c #607A91",
"U c #607A93",
"Y c #617B92",
"T c #617B94",
"R c #627C93",
"E c #627C95",
"W c #637D94",
"Q c #637D96",
"! c #647E97",
"~ c #657F98",
"^ c #668097",
"/ c #668099",
"( c #678198",
") c #67819A",
"_ c #68829B",
"` c #69839C",
"' c #6A849D",
/* pixels */
"HQU)_Q`!U~~KK~~UE!~!!!!!UH)!~`E)~TQ_~KT'QQ!!QQ!/!~KH/_~)T~/!EEUF",
"sbhNVcFNcVbppbVcNSHFVNVZptmcbScZSNNZbupmNVZSSZZScbppmVcNSSVNVSNh",
"kVkNNzFVmVbppbVmbNZZmcbNstmcmFcVFNNVzuuzcmNNNVNmzbspmNcNZNczNSms",
"ef9t91ptetq11qte7117q97791uqes39e99e913e775139q7qt53uuqp,355qtq,",
"ZPNVzpNmNZZNNZZNVfucHHVmHmHNNZpfmbmNNmNSZVcshVSVNFNbFSNFqkZSZSZN",
"zZzzp7hhcbNNNNbccq5fZVckZkNkkc99mbcccccbbbs9tcNzkmzkNbkm1sNNbcbb",
"zFmVzuNNNNNVVNNNmspmZbzmZkVcmSssSZNmmNmbbmzuhZZkzVmcVmzVpbVNbmNm",
"*q391%qq51::::155,3e9-:q1#1:5u::31,:,31,173-3ue**51:51*39q9339q5",
"uKFVVF!mVSUksSVFVSSZVZZZckFNNHVUZmVKZhkFSZSFFSZSSZhsVSVFHPHZVZNk",
"hScbNZPzzcZutNcbmNNmbbbbhsVbcZcFVbmZctpbbmNVVNmbbmsumNcNmVNbbNbh",
"NVsbVbZkbzZfkHmmmmbbbczchpVbcVkNNccmkusmzbmNNmbzzbspmmkbkbmczbcf",
"e9%77#3391e17h9751,573351-e539%:5,,31:5u3551155317,:q9,5-373,1,*",
"FFcFNebFZcSmZEVZVccZHSSHHNPSVSfkSZVZSZHTSFZzzZFSVHZZPHVFfmZVNZZm",
"zNzVh5zVmkVbmHcNbspbZmmVScSbcmeuZVNmmmmNmVbppbVmbZNbSVcV5pcbbNZV",
"hVzmktmmNzFmbZzZNsucVckbVhmkkmusNmbcccckkmbppbmkzVbzmchm5sbbcmNm",
"1e1551u75,e3:3-qt:%5q1:39-5:1q-,,1113751*57::75*,93:51-7#3eq331,",
"xGMADALxvJJlixDGMCCBMBCCviBACCvRCnCJCdjAMMBAACBBPmhcSFFFPFZZVmcc",
"gClnBnGljBBdylMnnMBMMMBBdrnnnBlDMxvMl0wlvnBCABMnNftfbmccNmmNNmbc",
"gBgxvlDvjnvaavnlnvnnMnMMiiBxxCjvCnnMxidMxvMBBBnvNhszNNbczcmmNmbz",
"2w;2<=04462;<06;<;;<2<<2&>y<>r;&04484<6i>2<;;2429,,7eq53-377551:",
"DIMCMgACGDCBDLGMMljMCMnBBCRBMJlaCMnMMMCJBCnddnACVbbZFZmmsmSVVSSN",
"MAlMlrvvBMvvBCBvndivBvxnBvDvxByrCMnvxxxvnBxrrxCBmzzNVbcc5fbzzVSV",
"lMgMlwxnnxlxxvvvMaivCnxMBdnxvnydCBMnnnxlxBviinCnVbbVZmbmecVzkNZN",
";4;84O6w42<<<>260&@6r640w@<488$6<<<<242>>08;;0w<731771151pf7:593",
"iABDCnJnvJjx8DMBMBCBMBCCviMCBCvWMvBGnaxYMMBADAADSZfsZHVFFHSNmZVb",
"0vjvxgCljCdg6BxxvnnvvvvvdrnvxMjDnxnBlwaAjlvMBMnnbbutbNzbNZNccbcf",
"iMlnvjDMxCxxiCnvBMMMMnnMjjDnvDxMBnMCvdlDlvMBBBMnbmfsVZcmmZZNmmcf",
"<r262=w82062>0624<<6866826d4<y>=4<28628a<42><46437::ee15*397573-",
"MGvBxiMnMBAnBBCnvgdnCBMAAARMvDgyBnnMBBAJMBxaavBBNSmmHFmVqhmmmNmc",
"nCjnj0jjMvAxAvCnxiyxBnnCDBJnvCiiDBnnMMMMMBxrrxBMmSmbFZbV7sbbbmmb",
"nClCvyvvAvDlGlABBganAMvBGxCnMCdxJAnvMBMvMDBddMAMmSmbSVcVtzVVmNVN",
">6;06@466;8@0$820&@28<=<8X=>24@46<==<64>>08==68;:5:*3,*1o195,133",
"sZmZSVKcbFSzzSFbbVZVVZSSVhZZFPS~KSHTHcbPZVNVVVZSHNkhbZZVZSZmNSSN",
"umkmmbFzcVbppbVcbmmbbbbmhezcbVzHVbmZcupmbbmNVNmNNzsskbbcbNmccmbk",
"hZcNNbKNNZmssmZNVVNVNmmmhtbbmZkVNccNcshVkcmmNmbzNckkbNmccVZNmNmk",
"1e173-e7795--597933795573*q77e*,3,1553qf-,1,,31:31137751*397775:",
"NHbVcpNmmNNmmNNmmkhmZNNZVcFNNZpuNbbNVZHTNZNzzVSVmmmNVVNmtkNNNVNc",
"mFbVzecbcmNNNNmccpucVmbVNzZccVe9VNmmmmNVmZmffNSNbmmNNNNNqhNNmNNb",
"mFmFmumVNNNVVNNNVfsmFNmZVcScbFstZVNmmNmbcVNfhVSbNVVVVVZZsmFZNNVN",
":7,e3o5q73,,,,379%+3q1:33:7-1u-#1111353,:99:,qq133533357*7t93131",
"fZzbmmPNzKbVuKNbbVSSZZVVktbmNSbPHZSKZkcKZNVSFSZVFcfzNVVSKPFNmVmk",
"tmkmNbHbzSkzqZbbcmNNmmbbfqcbmZzFVcbVztpmbbmVSZmbVkskmmmNmVNbbNmk",
"pVmFFNKNVHczuZZZVVVZZNNNzsVVSHcSZmmVbpfmNNVZFFZmZczNSZVVbVZVVSVb",
":e5e9,e59e5,-9q9511797573-e9qt-1e77q7,1q77515qq7933qtq79-5q9795,",
"mHbNzumbmNZbNNVmzsscNmmVVzSmmVuuVNNZVNVFVNzpfmZNVbmSFVmNqhmmmNNc",
"NFcmf7zcbcScSbVczuekmcbVVzZzzNe9bbcbmmNVNNketbZmmcbZZbcm1tzcbNVN",
"VHmSbebVSmHbPbFVShsmZNmSSmSzbHhpZVNmNVNNVSNfhZHNVmNSZmmVqkVVNZSS",
",q3t5o39e1e-t-e9u,%5q3177,9-1u,*eq73353,3q7:,et153375,,7*7t93333",
"qNNFSNKbmZmuubVcbNNmcbbbktmVVNzUBvnAnigAvnBACMMBAxdxMMnnMBMvnBMx",
"qmcNmzZkzNcuucmkNVVNNNNNpebbbNkSnlxMlwynxvnnnvnMMgajnvxxxnvllvxd",
"fZbVmkSbcNmhhNVbmmmNVNVZfhFmmHbVCnnBvadMBBBMMBCACxlMABnnvBBvvMnl",
",e371*95:33,,771,--15337,3f53p1-84484><0884><8w08220r066;4622662",
"mScmzpNmcmmbmVVmmkkNZVNSNVTmbFftMnnBBMBDMMxdjMCnBvnADBMBylnvvBCM",
"bZkbktbbmNNNNVVNNhfmSNmZZmHbcNtenvvnMBCAxvjyaMMjMvvBCnnB0dvvxnBM",
"NSzVbumVZVVNNNVVZhsmSNbVHcZmNNuhBBMnMBBBnBxalDAlCMMCCMBDrxCBnMBB",
"37-71o3551,::-:,q*#5e517e#,153o,662>><<;26<@;w0=62244<4wX<86<<<<",
"kmVNZHSccKcNtKNmbNVmcbbbpuNccSmKBvnAnigABvvnMMMMMxrBLBAjMBMvnBMx",
"scmbNSZczFzbtFmbNVVNNNNNptmccZbFAnMCvyaMxxxnBMvxCl8vAjBnvMnxxnvg",
"kbNNVSSNzZzzuVbcmmmNNNVVfpNccZzZCnnBvagMvnMBAAMxAvaLYjBDnBBnvMnl",
"13553353173,-551:**,3115,*9117%,<;<42>2w<2<<264><>>BM><8=24<<44<",
"VVVNckzbZSFNZZFZmhhmVNNZFNKZVSfkBMMCCBAJnnladnBvlxv(^jxMyjnvvMBM",
"ZVVmzshmVmFbFmSNmfsbVmbNSbFNmNtuCBMMnnnMMBlrinCMnMgDAanB0gnvvMBB",
"VNmmkskZmkZkFkVcNspbZbcmmhVbbNttBMnxxvxlMCvidBDMMDjnnlAnwjMnxnMn",
"-%%*+.#73*9*e%5:7#o191:3,#5,39+#2<>><442;2>X@46=&8;<2<8O @>=$$$@"
};
