/* XPM */
static char *result[] = {
/* columns rows colors chars-per-pixel */
"64 64 33 1 ",
"  c #050505",
". c #0C0C0C",
"X c #100F0F",
"o c #10100F",
"O c #131313",
"+ c #181717",
"@ c #171818",
"# c #1C1C1C",
"$ c #1F2020",
"% c #232323",
"& c #282827",
"* c #2C2C2C",
"= c #302F2F",
"- c #343434",
"; c #383737",
": c #373837",
"> c #383837",
", c #373838",
"< c #3B3B3B",
"1 c #403F3F",
"2 c #3F4040",
"3 c #434343",
"4 c #484747",
"5 c #4B4B4B",
"6 c #4F504F",
"7 c #535353",
"8 c #5B5B5B",
"9 c #605F5F",
"0 c #636363",
"q c #686867",
"w c #6C6C6C",
"e c #727272",
"r c #797979",
/* pixels */
"3<:<*-1<,-,1,-;,<,<<<<<2<<<-,--<,1<-*2<<-;,<,<;1;1<,;-,-<1<1<;<<",
"<;:,=:<,;,,,<-<<;;<-,--<=<<-<;,;-,;**61<<1<<1<-1,<;--,,;<<323;3<",
":--<&*-:<*--;,-<<;2,<=<<,<<,2<<,<1<*%,;;,<<2,132;<,,<33;<<323<<<",
";-;<#<3*:*:-,--1<<3<;-,424<1223<<<,===4,<2<<<,;,132,,-23<22<2<<,",
",<3<#<3<1;1,11=,,,,,1<<3<253<;532,<*=3--,<,<242,-,,<,<4<224<5;2<",
"<1<;#>:<;;-31-**==,2=,,1-,<-<<4-,,<-*7<-4,2-1<<,;<-,242143<;,<<3",
"O.OOO..oOXXO....XOOOOX  . O .OX.O...$X .OX. X..OX.+X..OX@XX+X@+@",
"-**-$**%%&****&&&=-&=%*-=<-.11=23<---<&<---=,,--;,*===-<,;&-=-=,",
"3<<<==-*-*--<<*-=41,4--3725X<2;;5<<;=-3*2,04<3<-<5;,-573;7*&,=,2",
"1=-1=<<=3==<<<==,3#43343345.<<=;<-;=-*;=2;-332<=3,;33552<7=%,12<",
"1,1541=-<--413--,32475;6422X<2,;=,2,--<122254,2,76234444-1-&<<24",
"<,31-1<<1,-,23--<7=32,33434.-14;<<623<,<345q775457985<3545=$-,2<",
"<1,1-<-,,-5<151<<2532,34<2,X-32,433343<<75377575q8797523;4&$,<1;",
",,<=,,<--,,112<,353343655<< -832125375478537878<827q755612-&6211",
"3,<--<,=-==<12<,352151325<2.177<327778478448rq07708w85443,*$<<2<",
"1<<,,<,,,4,,353,274<346743<X2w723377876w757qe8w7ww8e864478,%4422",
"<<<=-<,<3<<<21-<3751433234,.3744161<0777648we000weqqee6275,%2342",
"<<<,-<,,34,-13,2345<<654421.481<<53<57788559r0wqerrww07425=&2,4,",
"333--1,-<3;,344<466<2534321.387<<4<<5247776q0890eeeee87477-*21<<",
"33,-,3,<;,,-,533253,,35442<.3777373473257780ewee0wwwq77700-=<2<3",
"353--4--=,<,351,<3<<2<5541<O556755777758e78009868098800097,*42<3",
"<51=,5<,=<2244;<<2<1;455311.156465246556777768527478770078-=8557",
"&*$#%&%$&$%%%%X$$%##$#@&$$%+%$#$O##%%**%*&&=&*+$%O*%&***&*,-*&=&",
"&%&-+=-;&&*=*&-&&&$=**%=*%-&=&==*&$==***&====%=&-&&==***&-****&*",
"=-=3#*<3=-<<,;3-===43<;3=2,;2;12=*%#%2-=232,<5-=53*-22<,,2-,,=-=",
"=-<=+*<-&==<,3<-4,=-12-=,,--;-<-<=*#$<,<<6341,32-22**;,==3<-*=&=",
"-,,,$%=,,,,,3=5=11,<=23,<---;2-==<=$&=43,8231,=-4,-**<-,=-=<<=-=",
"--<-$=-,*=--,=3-2<,<;5-2;1<<<,-&,==#%3*33553,<<,1<1=<=--==-2*,<-",
",1,,+==3,,3;4=1-3<;4-42312<3-<-&,=,X%6&275<<2=-12<,-2=-=%=-;=,2,",
"-<-=$--,--<;,-4,22,4,,;<<;=<---=<,<%*,=434<1;-,252-<--==**---<-;",
",35,.=<3,-<-,;4,;=-514<-,=--<=-,4==@*4<345552<,45,;;1-4<=3-<,-=-",
",413%=3,,<<<-<6<-<154<<2;*,;2<,,,2<#&2=-25,142,234,1<3,2-3,-;#,3",
";<<<%1<<3,2<1<5,33,3432=;-322<;;-,2$*132355237<332<4<42-<,3,<,13",
"13,=%;3<4242,4523,,*<33-<-2231332,,%=3,1243425242223<22,<1-;-22<",
"<4;,$,13335433523;;<222,;2111<23,,<$*5<22322<<242-;-,312;<<1;;;2",
"222<%;,,<35335333<<31<5;<2,32<54,,2%*42<45242<354<<==3,--1<13,2-",
"1<<<$13435753554533433531531<<23<,2%=43243542<<371<=,2<,13145,<<",
"2,31$251747745342325325535232,311<3&*3;143<41<242;<,<2<235335442",
"23-,%22,<45444132<33,4<3<2<,2,2-,<2-=4,-22<3<,<,<=,-<3<<12;22<12",
"X.XX#OOX..XX... XXOXXX..XX.XXXO@OXO . .     . . .     ....X.  X.",
"=<<;-,-3;=,1,<<333-4<-=-=1-O,-<-*--%=<,;-23,--==*%*-;-&=<;=*<-;;",
"-<=114<33<545553<32655===2<+,51;-,<*;<,3112-<22<1<1,5,,,2-$&2<-<",
"23133<3<344885684-382642221 2<<<,-,=*11,;-<-1<-31323353;31%$2;=<",
"-3,<,4-<43686373<4489783,<,.2;;-;,,=**;,=,;5<=---516324;<<*%-<<4",
"33-1,5<;33785271<<498642-5,.;=3;-<===--,*;--;<---2263<<2-1&$,,1<",
"3<43,51<52788353,-22695<-<<.,%-<<4,,<=,2,-,21<=<33472433--*$,<<2",
"33,336<35<7893q423564742;5,X<,-321;;-=,-<,-333-<14463;<12,%%<1<3",
"35<3<6;<537008q72777452<-,3.-<233<=,,,<<;3;,23;<2525324<2,%%4<<1",
"65;1<4335497080q9w577=<4,<<X<&<324;%;,;,<42,<=12,17322*52<*%1331",
"26;2151334800909000w0077578O25,<<<=<,--,423<5-<1244565<334&*<3<1",
"<334343134890977qe0ewe00875X<4232<-31--143<=3323123755-5<<**<13<",
"3<-313<232700789we8q077w565.-12243;<2*<1<<3;,<,2;535<-34<<**;3;<",
"4<<437215,657580q909qq9775,.2<212<1-;=;,-,3-5-3,*43343<224**213-",
"6<14<<<33473890e085w87844<3X243<<13,-;<;<1535314<454432535%&33<<",
"2<,3;=,34<36770808752473,<,X2<32-1<,--=-2<2153432474734457-=54,<",
"O@ @+X+@#O$$$#$$%#$%$%#@O$@.%%O#%$#$@%O##@O%&%#%@#$%%%%$#%%-%$#.",
"=*&-#*&%&%=**$$%&**%=***=-*=,=--=*-,,*=*=&*=*,&&*%&=&*-%-=**=**=",
"-<;-#*,&,-,2,-41,<;,,=--,<23,<3<345**1,2,<3<,<,<22,1<;--<<<2;<2<",
"-;=-$=----1*2-1--;-<=<-;2-322<3<3,5=#1-2=,<231,1=<3<<-,1,1<,,2,<",
",-,;%-,---5,<=*;--;,=2-,233<24;,323&%1;<;;13432131<,1<<;*;333522",
"<-22%-4<5,<;;=2<;-,;;4-<<53<3;311<<%%333,;<<41<,41<,;,1-<;;314;,",
"<-;<@;=-1-,=,;;,,;<;=<<21<-;<2<,<1<=#3,2<,<332,=<<,-1--;<;,335,1",
"<;;,%;3,3,<=;,<-,<<-=3;2,<,,,-<1;,;<$<,2;;<<=<,<;,<=<-,-<<333<,<",
"2-12$-,;;,<-,;<,<;<,,1<5<<,=2-<-;;<,=;-3-;,-,2,3=<,<,=<,-1133<,1"
};
