/* XPM */
static char *result[] = {
/* columns rows colors chars-per-pixel */
"64 64 58 1 ",
"  c #9C9C9C",
". c #9FA09F",
"X c #A0A09F",
"o c #A09FA0",
"O c #9FA0A0",
"+ c #A3A3A3",
"@ c #A8A7A7",
"# c #A7A8A7",
"$ c #A7A7A8",
"% c #A7A8A8",
"& c #ABABAB",
"* c #B0AFAF",
"= c #B0AFB0",
"- c #B3B3B3",
"; c #B8B8B7",
": c #B7B7B8",
"> c #B7B8B8",
", c #BCBCBC",
"< c #BFC0BF",
"1 c #C1C0BF",
"2 c #BFBFC0",
"3 c #C0BFC0",
"4 c #C4C4C4",
"5 c #C8C8C7",
"6 c #C8C7C8",
"7 c #C7C8C8",
"8 c #CCCCCC",
"9 c #D0CFCF",
"0 c #CFD0CF",
"q c #D0D0CF",
"w c #D0CFD0",
"e c #CFD0D0",
"r c #D5D5D5",
"t c #D8D7D7",
"y c #D7D8D7",
"u c #D8D8D7",
"i c #D7D7D8",
"p c #D8D7D8",
"a c #D7D8D8",
"s c #DBDBDB",
"d c #E0DFDF",
"f c #DFE0DF",
"g c #E0E0DF",
"h c #DFDFE0",
"j c #E0DFE0",
"k c #DFE0E0",
"l c #E3E3E3",
"z c #E8E7E7",
"x c #E7E7E8",
"c c #E8E7E8",
"v c #E7E8E8",
"b c #EBEBEC",
"n c #F0EFEF",
"m c #F0F0EF",
"M c #EFEFF0",
"N c #F0EFF0",
"B c #EFF0F0",
"V c #F2F2F1",
/* pixels */
"bVNbzlzbbrrVVbvvzvbVVMbbbvzzzcb8bNbbvlszVVVbbbbvvzlv8bbvvvxbVvvb",
"sssllssllersssssdssssssllsssssk:ssssffsshsssllssssss8vlssssllsss",
"rrsssrsss85issssrssssssrslssssz4apsssssssspisssssssl8lsssrrsssss",
"sspssssjs88srurrrsttssslsdldssl8rssrrrre55rsaassrsss8jssssrsssss",
"sssssssss58strrqrstrtsssstsysss8sprr8rssrrrisrsrrpss8dllzlllhsrs",
"rrrrsssri4,248q8r8rrrrtrrqrr55-5458r8rr8rrirrrr588 ,89rsssslsirr",
"44,2445588858588588588585858558888855845588855588588888558888858",
"wllllllglsasslzzllllvrlssgslllshjllsljlsff8slllzzfsjssslllsssjlv",
"rssyrussspsssslstsssv8ssssssssssssssssrsrs4rssssssrrssssssrrrsjz",
"5sslsssssssyssrrrsssv8ssrysssrssssssrisssr8sfsssrssssssssrrsrssz",
"8zsjlsssssasdllddlsdl8sssrrssssrsipprrssss8rsslssssspspsssllllsl",
"4slszsssiirisslllllsd8ssr9rrriryrrsrrqrrrs5rssssssssrrrshlkslssr",
"8-&%%$ o   --%$@&&$*&8,-&%-%+$&$  $+++$#@&84&*%#$%%+ o%$::%%&-:5",
"vBmVVbvvl8vlsjcvbbvvvbvllzlllls8xzbvBnMBvlflzvzzlllb8blcllzzzksl",
"rrsssssss8lsssssssssdsssdsstspr8sssssssrtsssgssrtssz8vssrsislsss",
"ursssssss8zsssssssussssssrtssi58sssssasrssssssrrrssl5lsurrrsssss",
"ssssslsss8zsssshslssssssrrrrsa8wshsjsssssssrssssssss8lsssstsssus",
"sgssssfss8hsisprissrrrrsrwrrrs88ssjsssssssrsslllzzls8slzxlllssrs",
"54478rr7,8:--887468r8854r444,&-8,5rrw66465rrssr55,,-8:,,48rstr88",
"nvzzvvbbbbmVr78illils8VVvxzbVVVbvznbbvbvbV8bvllzlr8tcVVVnvzkzbMr",
"zsssssllsssssshsssssa8jlsjjssyspssllsssssl8ssssssklsssshlsjssss,",
"zssssssssssssssssssrr5srsssssrrssssssrrisl8lsassssssssspsssisrs,",
"lssirsppar848isrssssr8sslssrssssssssrrrssj8jssrsspspsssspprsssr2",
"lssitrrsssrrrsr8rrrs88slsssssssirssjlllllj8lasarrssrsristrrprrs4",
":-$rrrraiirrrrrrrrr858rrssssirrrrrssssssr58<7e5erssrrrt8rrrrr7r,",
"5885557555444,,44,455854,,4454444444588588888878544444444444<448",
"sllzlllll8llsshlllsdsllsdhsgsgrlzlssslzlssssllllllzl8vzlhlzlksss",
"sssssrrsselsssssssssssssssrysp8tdssrisfssssrrsssrsss8lgsssshksss",
"sssrsssds8lsslzljllhsssssryssr8qhsttrrsssssysssssssh8zsssrrrssss",
"ssssslsll8lssssssssssyusr9rrrs88sdjsslssrssssussksds8lsldshlkssa",
"rsssslsls8gssrrrssprrrsrr8rrrs5ejszllllsyuussssslsss8sslzlllhsra",
". +#&--%%84+X+++++$*$ +%+ .+$$,9&-%&%4r4-@X ..+&:-&38*:-,--&:44&",
"vzllzvbbBbVbbbvxbbvvv8bzbvbvbvlzvVVVVvbNVb8bvbvbbBbzzvbVVVbbbVbl",
"lsssssssssssssdsssssr8lsssssllssssyslddskk8blssssllssssyrlssdkfr",
"vsspssssssssssspssytr8lssirrsssssrrssssssh5zsssrrsssssrrssassssr",
"zssrrsisrsssssrrtsssr8sssssssssrssssssdsss8lssssussssssssssssss5",
"lsyrrraasryrsarrrtrss5llzzzllssrsssspsssss8flzzzlldsrssssssssss8",
"*--,48rrrrr887859q5,-844rtrrsaar8r8rrrtser8,78rrrssrr8r5wsrrsrr,",
"zssrs8rsz8sliss8888rllklssr8izw8zlurisslzsrrssssssll8ljrss8888sg",
"sslkssssg8ssssssklssfslsksfssh58ljlslsssssssllssssgb5sssssjjslss",
"sssssysssrksysssssassassssrurs45sssrrssrrsssssytrssz8rsssprsssss",
"dklsllssswlssrsssssssssrrrsssr18sssfsrssrsssstrrsssl5rsssrrpsyss",
"sssssssss8kssrirssrrststrrtsrr48ssjlsssssssrdlflllsl8ssrrr8rsrsi",
"rssrrrs8a85rr50ryyrsrrrr8rrrrr48srsssssarrrsslsdssrr888rrerrrrrr",
":,,,:-,;,8554,,4;:,:---,,:--:,554::--:1;--::&%,,,4458554,4,=--=:",
"pzvzlvvzzkssjllldgslv,sdhssldhxlsllzzlsssl8bllsdllzjsslxvvbzzzza",
"rsssrsssrrssslssrsssb4styussssssssssssssss8vssttahhsssrrafsyassr",
"asssssssursssssrrrssf8rsssrsasssssssssysss8lsstrrisssstysssssssr",
"yssgkssssssasssssflss8srsurrusrsuusdssssss8asffsssssssassssssjss",
"rsslssssssrssslzlzlss8srrr8rrssruysryrtuss8sllzlllssrsasssshsssr",
"8$,57,% -,,48rr4,;==:8.$-:+-4<,,44:$%:;: +8>&-:;5rr84<,-O%,571$5",
"MbMbxzllvrcVVBBbVVVvzvbVVvvbbvb8bVbvzvbVVVBbbvzzzzvb8zVbbvzlbVVB",
"sskssssssrrlsssgsaasssslssssssv:sssssldsshssslssssss5ssssshsfsss",
"sssssspss8rssssssrrssssssrrrssz,rpssrssisssssssssssl8rrssissssss",
"ssrssrsssrrssgsssssssssasrsussv4rsssrrtssssasyssrsas8asssrrsr85r",
"risrrsrsprrgsdsssssssassldlzllz4ssrprrrssrarssrrrsss8ssrrrwiirrr",
"arrr858.:5,5rsary0qrrrssssrr85,544rq8r88rrrarrr544,:8445e8rr8rrr",
"88588888888858588888588888880885858888888855r885885808e588888857",
"8zlslllssssssllsssslb0zllsklllssssshlllskl8bskfflllhssssslllllzr",
"8sssrssrrisssfssryssv8kssssslsssssssssrsss8vsssrrllsssarsssrsssr",
"8sslgsusssssssrrrrssl8lsssrrrssssssssssssf8lsssprussissssassssl8",
"5fssgssssusrsslslllsv8lslshllfsiassssslhzs8lhsljlssssssssssssss8",
"5sssssrsstrssslsfflsr8ssllldgfsrrasrslzshs8sszljdlssirsssissssse",
"8--&%&&-%X+%$$,%**-,18$*+@$$+$&$ O o+%&->,841:---&%&&    O$&=-&4"
};
